<svg xmlns="http://www.w3.org/2000/svg" viewBox="0 0 860 520" width="860" height="520">
<rect width="860" height="520" fill="#FFFFFF" rx="8" stroke="#CBD5E1" stroke-width="1"/>
<style>
  text { font-family: 'Segoe UI', Helvetica, Arial, sans-serif; }
  .tag  { font-size:9.5px; font-weight:700; fill:#2563EB; letter-spacing:.7px; }
  .ttl  { font-size:14.5px; font-weight:800; fill:#0F172A; }
  .sub  { font-size:10.5px; fill:#64748B; }
  .axl  { font-size:11.5px; font-weight:700; fill:#334155; }
  .tck  { font-size:9.5px;  font-weight:500; fill:#64748B;
          font-family:'Courier New',monospace; }
  .grid { stroke:#E2E8F0; stroke-width:.9; stroke-dasharray:4,4; }
  .ax   { stroke:#94A3B8; stroke-width:1.5; }
  .lbl  { font-size:9.5px; font-weight:700; }
  .lcrd { fill:#FFFFFF; stroke:#E2E8F0; stroke-width:1; }
</style>
<rect x="90" y="16" width="325.5" height="16" fill="#EFF6FF" rx="3"/>
<text x="97" y="28" class="tag">Árvores de Busca Binária — Análise de Pior Caso</text>
<text x="90" y="50" class="ttl">Pior Caso com Chaves Ordenadas: BST vs. AVL, Treap e Splay</text>
<text x="90" y="66" class="sub">BST degenera em lista encadeada O(N²); auto-balanceáveis mantêm O(N log N)  •  Média de 10 Execuções Independentes</text>
<rect x="90" y="82" width="740" height="370" fill="#F8FAFC" rx="3"/>
<line x1="90" y1="452.0" x2="830" y2="452.0" class="grid"/>
<text x="82" y="455.5" text-anchor="end" class="tck">1.0e-07 s</text>
<line x1="90" y1="397.0" x2="830" y2="397.0" class="grid"/>
<text x="82" y="400.5" text-anchor="end" class="tck">1.0e-06 s</text>
<line x1="90" y1="342.0" x2="830" y2="342.0" class="grid"/>
<text x="82" y="345.5" text-anchor="end" class="tck">1.0e-05 s</text>
<line x1="90" y1="287.0" x2="830" y2="287.0" class="grid"/>
<text x="82" y="290.5" text-anchor="end" class="tck">1.0e-04 s</text>
<line x1="90" y1="231.9" x2="830" y2="231.9" class="grid"/>
<text x="82" y="235.4" text-anchor="end" class="tck">0.0010 s</text>
<line x1="90" y1="176.9" x2="830" y2="176.9" class="grid"/>
<text x="82" y="180.4" text-anchor="end" class="tck">0.0100 s</text>
<line x1="90" y1="121.9" x2="830" y2="121.9" class="grid"/>
<text x="82" y="125.4" text-anchor="end" class="tck">0.1000 s</text>
<line x1="90.0" y1="82" x2="90.0" y2="452" class="grid"/>
<text x="90.0" y="470" text-anchor="middle" class="tck">100</text>
<line x1="336.7" y1="82" x2="336.7" y2="452" class="grid"/>
<text x="336.7" y="470" text-anchor="middle" class="tck">1,000</text>
<line x1="583.3" y1="82" x2="583.3" y2="452" class="grid"/>
<text x="583.3" y="470" text-anchor="middle" class="tck">10,000</text>
<line x1="755.7" y1="82" x2="755.7" y2="452" class="grid"/>
<text x="755.7" y="470" text-anchor="middle" class="tck">50,000</text>
<line x1="830.0" y1="82" x2="830.0" y2="452" class="grid"/>
<text x="830.0" y="470" text-anchor="middle" class="tck">100,000</text>
<line x1="90" y1="452" x2="830" y2="452" class="ax"/>
<line x1="90" y1="82"   x2="90"    y2="452" class="ax"/>
<text x="460.0" y="492" text-anchor="middle" class="axl">Tamanho da Entrada N (chaves 1..N em ordem crescente)</text>
<text x="22" y="267.0" text-anchor="middle" transform="rotate(-90 22 267.0)" class="axl">Tempo de Inserção (s) — escala log₁₀</text>
<polygon points="90.0,370.5 336.7,303.9 583.3,243.0 755.7,197.6 830.0,178.5 830.0,180.6 755.7,200.2 583.3,245.8 336.7,309.7 90.0,373.9" fill="#059669" opacity="0.12"/>
<path d="M90.0,344.4 L336.7,227.8 L583.3,108.2" fill="none" stroke="#DC2626" stroke-width="2.3" stroke-linejoin="round" stroke-linecap="round"/>
<circle cx="90.0" cy="344.4" r="4" fill="#DC2626" stroke="#fff" stroke-width="1.5"/>
<circle cx="336.7" cy="227.8" r="4" fill="#DC2626" stroke="#fff" stroke-width="1.5"/>
<circle cx="583.3" cy="108.2" r="4" fill="#DC2626" stroke="#fff" stroke-width="1.5"/>
<path d="M90.0,372.1 L336.7,306.6 L583.3,244.4 L755.7,198.9 L830.0,179.5" fill="none" stroke="#059669" stroke-width="2.3" stroke-linejoin="round" stroke-linecap="round"/>
<rect x="86.5" y="368.6" width="7" height="7" fill="#059669" stroke="#fff" stroke-width="1.5" rx="1"/>
<rect x="333.2" y="303.1" width="7" height="7" fill="#059669" stroke="#fff" stroke-width="1.5" rx="1"/>
<rect x="579.8" y="240.9" width="7" height="7" fill="#059669" stroke="#fff" stroke-width="1.5" rx="1"/>
<rect x="752.2" y="195.4" width="7" height="7" fill="#059669" stroke="#fff" stroke-width="1.5" rx="1"/>
<rect x="826.5" y="176.0" width="7" height="7" fill="#059669" stroke="#fff" stroke-width="1.5" rx="1"/>
<path d="M90.0,365.5 L336.7,312.4 L583.3,254.3 L755.7,210.6 L830.0,191.4" fill="none" stroke="#D97706" stroke-width="2.3" stroke-linejoin="round" stroke-linecap="round"/>
<polygon points="90.0,360.5 85.0,369.5 95.0,369.5" fill="#D97706" stroke="#fff" stroke-width="1.5"/>
<polygon points="336.7,307.4 331.7,316.4 341.7,316.4" fill="#D97706" stroke="#fff" stroke-width="1.5"/>
<polygon points="583.3,249.3 578.3,258.3 588.3,258.3" fill="#D97706" stroke="#fff" stroke-width="1.5"/>
<polygon points="755.7,205.6 750.7,214.6 760.7,214.6" fill="#D97706" stroke="#fff" stroke-width="1.5"/>
<polygon points="830.0,186.4 825.0,195.4 835.0,195.4" fill="#D97706" stroke="#fff" stroke-width="1.5"/>
<path d="M90.0,398.5 L336.7,343.5 L583.3,286.5 L755.7,231.9 L830.0,204.5" fill="none" stroke="#7C3AED" stroke-width="2.3" stroke-linejoin="round" stroke-linecap="round"/>
<polygon points="90.0,393.5 95.0,398.5 90.0,403.5 85.0,398.5" fill="#7C3AED" stroke="#fff" stroke-width="1.5"/>
<polygon points="336.7,338.5 341.7,343.5 336.7,348.5 331.7,343.5" fill="#7C3AED" stroke="#fff" stroke-width="1.5"/>
<polygon points="583.3,281.5 588.3,286.5 583.3,291.5 578.3,286.5" fill="#7C3AED" stroke="#fff" stroke-width="1.5"/>
<polygon points="755.7,226.9 760.7,231.9 755.7,236.9 750.7,231.9" fill="#7C3AED" stroke="#fff" stroke-width="1.5"/>
<polygon points="830.0,199.5 835.0,204.5 830.0,209.5 825.0,204.5" fill="#7C3AED" stroke="#fff" stroke-width="1.5"/>
<rect x="591.3333333333333" y="98.24956858330512" width="138" height="17" fill="#FEF2F2" stroke="#DC2626" stroke-width="1" rx="3"/>
<text x="598.3333333333333" y="110.24956858330512" class="lbl" fill="#B91C1C">BST: sem dados p/ N>10k</text>
<rect x="450" y="92" width="370" height="52" class="lcrd" rx="5"/>
<line x1="460" y1="110" x2="482" y2="110" stroke="#DC2626" stroke-width="2.5"/>
<circle cx="471" cy="110" r="3.5" fill="#DC2626" stroke="#fff" stroke-width="1.5"/>
<text x="488" y="114" class="lbl" fill="#1E293B">BST — Pior Caso O(N²)</text>
<line x1="460" y1="130" x2="482" y2="130" stroke="#059669" stroke-width="2.5"/>
<circle cx="471" cy="130" r="3.5" fill="#059669" stroke="#fff" stroke-width="1.5"/>
<text x="488" y="134" class="lbl" fill="#1E293B">Árvore AVL</text>
<line x1="645" y1="110" x2="667" y2="110" stroke="#D97706" stroke-width="2.5"/>
<circle cx="656" cy="110" r="3.5" fill="#D97706" stroke="#fff" stroke-width="1.5"/>
<text x="673" y="114" class="lbl" fill="#1E293B">Árvore Treap</text>
<line x1="645" y1="130" x2="667" y2="130" stroke="#7C3AED" stroke-width="2.5"/>
<circle cx="656" cy="130" r="3.5" fill="#7C3AED" stroke="#fff" stroke-width="1.5"/>
<text x="673" y="134" class="lbl" fill="#1E293B">Árvore Splay</text>
</svg>